#!OML:ASF \\sashay\E\Suitcase\Project 1\Capture day 1\Session 1\Male1.ASF
:FULLY-SPECIFIED
:DEGREES
757
root 0.79559 17.1998 7.79411 4.92277 -0.742806 -6.39318
lowerback 4.4912 -1.2066 4.49867
upperback -1.31008 -1.21511 3.39905
thorax -3.89939 -0.669497 1.08812
lowerneck -12.9406 -0.241441 -2.10366
upperneck 21.9861 1.53732 -5.94371
head 9.08549 -0.0995956 -1.50019
rclavicle -2.96189e-014 2.90226e-014
rhumerus -30.4576 -25.7144 -71.2768
rradius 18.909
rwrist 0.0458475
rhand -11.2579 23.1006
rfingers 7.12502
rthumb 14.772 -6.35301
lclavicle -2.96189e-014 2.90226e-014
lhumerus -38.6052 2.07164 83.951
lradius 28.6177
lwrist -5.21796
lhand 1.81137 42.3142
lfingers 7.12502
lthumb 27.3242 70.354
rfemur -7.38952 4.7849 30.8534
rtibia 22.2934
rfoot -16.8427 -11.0772
rtoes 22.2891
lfemur -33.8798 -2.29418 -13.5639
ltibia 45.1774
lfoot -19.2598 -18.0583
ltoes 31.3493
758
root 0.797662 17.2012 7.92129 5.11752 -0.828248 -6.26818
lowerback 4.04222 -1.07789 4.42608
upperback -0.903525 -1.10401 3.31941
thorax -3.22165 -0.602059 1.0185
lowerneck -13.7412 -0.178027 -2.26011
upperneck 22.1726 1.6168 -5.53885
head 9.29726 -0.0488849 -1.33146
rclavicle 1.98785e-014 -3.4191e-014
rhumerus -30.0989 -25.3666 -71.6169
rradius 18.5884
rwrist -0.79788
rhand -11.4753 22.1169
rfingers 7.12502
rthumb 14.5626 -7.35188
lclavicle 1.98785e-014 -3.4191e-014
lhumerus -37.7939 2.20298 83.8267
lradius 28.8179
lwrist -5.56528
lhand 3.07441 43.947
lfingers 7.12502
lthumb 28.5317 71.7904
rfemur -6.88251 4.73229 30.7505
rtibia 21.8581
rfoot -16.8129 -11.2102
rtoes 21.5153
lfemur -34.1632 -2.11698 -13.8821
ltibia 43.3386
lfoot -20.7584 -17.1399
ltoes 25.4256
759
root 0.797266 17.1963 8.04414 5.21443 -1.41999 -5.88523
lowerback 4.63591 -0.982282 3.81213
upperback -1.11475 -0.962468 3.27498
thorax -3.76292 -0.526883 1.32151
lowerneck -13.4446 -0.251112 -2.68264
upperneck 22.0895 1.58153 -5.48662
head 9.21166 -0.0886754 -1.24461
rclavicle 1.31695e-014 5.00937e-014
rhumerus -30.8788 -26.2437 -70.7753
rradius 17.9195
rwrist 0.876323
rhand -11.5819 22.1508
rfingers 7.12502
rthumb 14.4598 -7.32537
lclavicle 1.31695e-014 5.00937e-014
lhumerus -38.2792 2.42566 83.7251
lradius 28.9631
lwrist -5.43042
lhand 1.97068 43.1546
lfingers 7.12502
lthumb 27.4765 71.1702
rfemur -6.2755 5.41412 30.3464
rtibia 21.4592
rfoot -17.1114 -11.2104
rtoes 22.1472
lfemur -34.1917 -1.89758 -14.3633
ltibia 41.3906
lfoot -20.9224 -16.4902
ltoes 26.137
760
root 0.779871 17.1838 8.18421 5.27848 -1.79891 -6.35638
lowerback 4.99594 -0.796615 3.97497
upperback -1.27343 -0.667172 3.43859
thorax -4.13057 -0.386566 1.386
lowerneck -13.1398 -0.255563 -2.91619
upperneck 21.8715 1.5097 -5.10073
head 9.07231 -0.0887094 -1.07761
rclavicle -1.46604e-014 4.77083e-015
rhumerus -31.6828 -25.1564 -70.7082
rradius 17.628
rwrist -0.240895
rhand -11.8055 22.4981
rfingers 7.12502
rthumb 14.2444 -6.9934
lclavicle -1.46604e-014 4.77083e-015
lhumerus -38.6563 2.65524 83.4869
lradius 29.1467
lwrist -5.45299
lhand 1.95705 42.9396
lfingers 7.12502
lthumb 27.4635 70.9573
rfemur -5.42169 6.05532 31.0175
rtibia 20.7952
rfoot -17.0439 -11.6005
rtoes 20.9809
lfemur -34.1951 -1.67704 -13.7681
ltibia 39.5218
lfoot -21.1538 -15.988
ltoes 25.2507
761
root 0.795072 17.1788 8.314 5.33458 -1.73192 -6.54009
lowerback 5.28239 -0.847125 4.25543
upperback -1.27795 -0.69516 3.45717
thorax -4.3017 -0.408998 1.25665
lowerneck -13.943 -0.094578 -2.20591
upperneck 22.4102 1.84274 -5.94452
head 9.42996 0.0057331 -1.45786
rclavicle 2.41772e-014 -4.13472e-014
rhumerus -32.265 -24.9067 -70.6075
rradius 17.5986
rwrist -0.0163874
rhand -11.9738 22.05
rfingers 7.12502
rthumb 14.0822 -7.45286
lclavicle 2.41772e-014 -4.13472e-014
lhumerus -38.7454 2.84606 83.3246
lradius 29.2877
lwrist -5.42021
lhand 2.12302 42.8603
lfingers 7.12502
lthumb 27.6222 70.8527
rfemur -4.6031 5.79126 31.1926
rtibia 20.034
rfoot -16.8626 -11.5978
rtoes 20.3773
lfemur -34.1989 -1.80181 -13.6714
ltibia 37.6018
lfoot -21.2706 -15.8092
ltoes 25.6793
762
root 0.793867 17.2009 8.45315 5.63976 -1.88455 -6.27745
lowerback 4.63553 -0.762829 4.04191
upperback -1.01925 -0.662134 3.23736
thorax -3.66524 -0.381528 1.12881
lowerneck -13.9119 -0.122444 -2.02074
upperneck 21.7111 1.69393 -5.85997
head 9.17487 -0.0180472 -1.4675
rclavicle -1.49089e-014 -1.82882e-014
rhumerus -32.6186 -26.8949 -69.8556
rradius 16.5875
rwrist 1.28256
rhand -12.1563 22.3427
rfingers 7.12502
rthumb 13.9064 -7.17233
lclavicle -1.49089e-014 -1.82882e-014
lhumerus -38.143 2.54306 83.0477
lradius 29.0961
lwrist -4.79256
lhand 2.02097 42.9955
lfingers 7.12502
lthumb 27.5246 71.0035
rfemur -3.91424 5.7226 30.8724
rtibia 19.0919
rfoot -16.9507 -11.4339
rtoes 19.7246
lfemur -34.4598 -1.81109 -13.9642
ltibia 35.6539
lfoot -21.2712 -15.776
ltoes 27.4556
763
root 0.797124 17.2096 8.58322 5.92772 -2.13129 -6.12071
lowerback 4.66536 -0.622782 3.81756
upperback -0.952351 -0.490032 3.24508
thorax -3.60834 -0.290097 1.24805
lowerneck -14.3508 -0.246776 -2.48797
upperneck 21.6343 1.64442 -5.83253
head 9.22952 -0.0814156 -1.3868
rclavicle -1.98288e-014 1.86858e-014
rhumerus -32.9679 -26.6547 -69.6916
rradius 16.7707
rwrist 1.45416
rhand -12.0216 21.6406
rfingers 7.12502
rthumb 14.0362 -7.86547
lclavicle -1.98288e-014 1.86858e-014
lhumerus -37.875 2.60473 83.0547
lradius 29.1564
lwrist -4.71212
lhand 2.31951 43.2065
lfingers 7.12502
lthumb 27.8101 71.1687
rfemur -3.18878 5.76169 30.6537
rtibia 18.0248
rfoot -16.6662 -11.3029
rtoes 19.5391
lfemur -34.7577 -2.02438 -14.0511
ltibia 33.7606
lfoot -21.2764 -15.1004
ltoes 26.9896
764
root 0.803406 17.2233 8.71881 6.08885 -2.24933 -5.53732
lowerback 4.39875 -0.57987 3.22965
upperback -0.794811 -0.496519 3.04857
thorax -3.28995 -0.27985 1.36793
lowerneck -15.9231 0.317825 -0.337944
upperneck 23.0116 2.5605 -7.92126
head 10.0865 0.221023 -2.39746
rclavicle -2.48481e-015 -2.0276e-014
rhumerus -33.1592 -27.0811 -69.4821
rradius 16.1942
rwrist 1.64804
rhand -12.4015 21.8755
rfingers 7.12502
rthumb 13.67 -7.65558
lclavicle -2.48481e-015 -2.0276e-014
lhumerus -37.768 2.92825 82.7595
lradius 29.3738
lwrist -4.67538
lhand 1.48256 42.5282
lfingers 7.12502
lthumb 27.0096 70.6171
rfemur -2.34511 5.8418 29.946
rtibia 16.8994
rfoot -16.3999 -11.2261
rtoes 19.2807
lfemur -34.7494 -2.3166 -14.6818
ltibia 31.8584
lfoot -21.7667 -14.2853
ltoes 26.303
765
root 0.811775 17.2145 8.85374 6.2769 -2.3021 -6.30999
lowerback 5.13282 -0.608969 4.10522
upperback -1.26214 -0.410647 3.1622
thorax -4.19749 -0.266698 1.00604
lowerneck -17.9087 -2.81679 -16.4118
upperneck 23.976 -2.91467 14.291
head 11.1605 -1.1268 7.74567
rclavicle 1.05604e-014 -3.24019e-014
rhumerus -34.3776 -26.0432 -69.5005
rradius 16.2166
rwrist 1.35385
rhand -12.5512 21.1007
rfingers 7.12502
rthumb 13.5258 -8.44006
lclavicle 1.05604e-014 -3.24019e-014
lhumerus -38.7435 3.40158 82.1592
lradius 29.9709
lwrist -4.66709
lhand 1.91824 43.0159
lfingers 7.12502
lthumb 27.4264 71.0395
rfemur -1.45231 5.53265 30.7594
rtibia 15.7454
rfoot -16.0777 -11.0945
rtoes 18.4244
lfemur -34.9741 -2.50988 -13.7486
ltibia 30.2606
lfoot -21.6688 -13.5181
ltoes 24.4694
766
root 0.823805 17.2224 8.99797 6.59007 -2.35967 -5.66698
lowerback 4.48426 -0.511856 3.56461
upperback -0.915755 -0.379529 2.95312
thorax -3.46667 -0.231332 1.07592
lowerneck -18.3672 0.838948 1.49124
upperneck 25.0229 3.55087 -9.95619
head 11.4316 0.482641 -3.39115
rclavicle 5.91384e-015 -1.98785e-014
rhumerus -34.4691 -27.1349 -68.9836
rradius 15.8121
rwrist 2.0158
rhand -12.8386 21.8063
rfingers 7.12502
rthumb 13.2487 -7.75264
lclavicle 5.91384e-015 -1.98785e-014
lhumerus -37.9173 3.36434 82.1301
lradius 29.5048
lwrist -3.95231
lhand 1.18931 42.0777
lfingers 7.12502
lthumb 26.729 70.2097
rfemur -0.685755 5.39267 29.958
rtibia 14.6523
rfoot -15.836 -10.8435
rtoes 18.2278
lfemur -35.1741 -2.84631 -14.4335
ltibia 28.7108
lfoot -22.5828 -12.3356
ltoes 21.6709
767
root 0.807999 17.2091 9.14507 6.63968 -2.76951 -6.17616
lowerback 4.43329 -0.281059 3.74025
upperback -0.659346 -0.0714592 3.1342
thorax -3.17051 -0.0752354 1.13926
lowerneck -19.0987 0.861253 1.42369
upperneck 25.1762 3.61518 -9.89692
head 11.6398 0.489927 -3.35935
rclavicle 4.57205e-015 -1.15295e-014
rhumerus -34.8194 -26.9607 -68.9783
rradius 15.935
rwrist 1.42524
rhand -12.991 20.6514
rfingers 7.12502
rthumb 13.1019 -8.91703
lclavicle 4.57205e-015 -1.15295e-014
lhumerus -37.6369 3.47086 82.0084
lradius 29.6684
lwrist -3.74484
lhand 1.6253 42.4533
lfingers 7.12502
lthumb 27.1462 70.521
rfemur 0.459621 6.47675 30.6743
rtibia 13.4784
rfoot -15.4459 -11.6383
rtoes 18.3613
lfemur -35.2249 -2.5677 -13.7743
ltibia 27.4173
lfoot -22.3393 -12.1021
ltoes 23.0779
768
root 0.821274 17.2016 9.2769 7.11545 -2.79222 -6.25351
lowerback 4.3104 -0.296421 3.96669
upperback -0.844538 -0.08183 3.01365
thorax -3.29379 -0.0883708 0.889693
lowerneck -19.1955 1.12665 1.70765
upperneck 25.4777 3.93357 -9.89628
head 11.8024 0.650529 -3.37016
rclavicle -1.26725e-015 -1.68967e-014
rhumerus -35.6086 -28.3349 -68.0393
rradius 15.0954
rwrist 3.14809
rhand -13.0427 21.1698
rfingers 7.12502
rthumb 13.052 -8.40186
lclavicle -1.26725e-015 -1.68967e-014
lhumerus -37.9643 4.00367 81.3787
lradius 29.9735
lwrist -3.96812
lhand 1.83052 42.7993
lfingers 7.12502
lthumb 27.3425 70.8362
rfemur 1.07182 6.2547 30.6608
rtibia 12.2831
rfoot -14.933 -11.4919
rtoes 16.2837
lfemur -35.8084 -3.15571 -13.4677
ltibia 26.1061
lfoot -21.8676 -11.2084
ltoes 22.5657
769
root 0.819078 17.201 9.42244 7.2226 -3.19883 -5.8904
lowerback 4.29083 -0.108196 3.45246
upperback -0.81287 0.135874 2.93596
thorax -3.24684 0.0297522 1.08093
lowerneck -19.0656 1.09329 2.30971
upperneck 25.5909 3.91825 -10.6442
head 11.8493 0.609074 -3.76616
rclavicle -3.70236e-015 -2.3059e-014
rhumerus -36.3323 -28.0931 -67.7071
rradius 15.3359
rwrist 2.77929
rhand -12.8306 20.4271
rfingers 7.12502
rthumb 13.2565 -9.13138
lclavicle -3.70236e-015 -2.3059e-014
lhumerus -38.4102 3.87092 81.3908
lradius 30.3852
lwrist -2.69233
lhand 0.562482 42.9921
lfingers 7.12502
lthumb 26.129 71.2143
rfemur 1.978 6.78402 30.2552
rtibia 11.2585
rfoot -14.6891 -11.6132
rtoes 16.3016
lfemur -35.8408 -3.00612 -13.9343
ltibia 25.0324
lfoot -22.2631 -9.77152
ltoes 18.324
770
root 0.827121 17.2213 9.56438 7.55948 -3.04085 -5.60592
lowerback 3.52894 -0.0550239 3.18288
upperback -0.249701 0.125452 2.90108
thorax -2.2368 0.0408254 1.19085
lowerneck -20.0737 0.963001 1.66084
upperneck 25.2386 3.86953 -10.4541
head 11.9005 0.529532 -3.58438
rclavicle 1.37161e-014 3.97569e-016
rhumerus -35.8486 -29.3671 -67.255
rradius 14.719
rwrist 3.79255
rhand -13.2703 20.3005
rfingers 7.12502
rthumb 12.8326 -9.28502
lclavicle 1.37161e-014 3.97569e-016
lhumerus -37.3484 4.32604 81.2988
lradius 30.3092
lwrist -2.60781
lhand 0.669681 42.9062
lfingers 7.12502
lthumb 26.2317 71.1132
rfemur 2.65169 6.58784 29.9142
rtibia 10.1283
rfoot -14.3994 -11.8163
rtoes 15.5932
lfemur -36.4981 -3.38574 -14.154
ltibia 24.215
lfoot -21.8714 -9.62869
ltoes 22.7754
771
root 0.852869 17.1948 9.70884 7.81595 -3.00761 -5.65856
lowerback 3.8685 -0.0596178 3.62396
upperback -0.662835 0.172091 2.71468
thorax -2.85225 0.0479778 0.75209
lowerneck -19.5202 1.03363 1.95622
upperneck 25.0905 3.88665 -10.5786
head 11.7397 0.569626 -3.66895
rclavicle 4.5969e-015 1.80894e-014
rhumerus -37.3454 -30.4293 -65.9669
rradius 14.1313
rwrist 5.10594
rhand -13.4644 21.2234
rfingers 7.12502
rthumb 12.6455 -8.37377
lclavicle 4.5969e-015 1.80894e-014
lhumerus -38.2105 4.17508 80.8491
lradius 30.5155
lwrist -1.6122
lhand -0.159926 42.7183
lfingers 7.12502
lthumb 25.4372 71.041
rfemur 3.47189 6.40304 29.8276
rtibia 9.31857
rfoot -14.079 -11.6442
rtoes 13.7362
lfemur -36.384 -2.64943 -14.7326
ltibia 23.4521
lfoot -22.4071 -7.99172
ltoes 13.226
